<svg xmlns="http://www.w3.org/2000/svg" viewBox="0 0 200 260" shape-rendering="crispEdges">

  <!-- Cuerpo principal superior (rojo) -->
  <rect x="20" y="10" width="160" height="10" fill="#e63946"/>
  <rect x="10" y="20" width="180" height="10" fill="#e63946"/>
  <rect x="10" y="30" width="180" height="10" fill="#e63946"/>
  <rect x="10" y="40" width="180" height="10" fill="#e63946"/>
  <rect x="10" y="50" width="180" height="10" fill="#e63946"/>
  <rect x="10" y="60" width="180" height="10" fill="#e63946"/>
  <rect x="10" y="70" width="180" height="10" fill="#e63946"/>
  <rect x="10" y="80" width="180" height="10" fill="#e63946"/>
  <rect x="10" y="90" width="180" height="10" fill="#e63946"/>
  <rect x="10" y="100" width="180" height="10" fill="#e63946"/>

  <!-- Bisagra central -->
  <rect x="10" y="110" width="180" height="5" fill="#1a1a2e"/>
  <rect x="10" y="115" width="180" height="5" fill="#c1121f"/>
  <rect x="10" y="120" width="180" height="5" fill="#1a1a2e"/>

  <!-- Cuerpo principal inferior (gris oscuro) -->
  <rect x="10" y="125" width="180" height="10" fill="#2a2a3e"/>
  <rect x="10" y="135" width="180" height="10" fill="#2a2a3e"/>
  <rect x="10" y="145" width="180" height="10" fill="#2a2a3e"/>
  <rect x="10" y="155" width="180" height="10" fill="#2a2a3e"/>
  <rect x="10" y="165" width="180" height="10" fill="#2a2a3e"/>
  <rect x="10" y="175" width="180" height="10" fill="#2a2a3e"/>
  <rect x="10" y="185" width="180" height="10" fill="#2a2a3e"/>
  <rect x="10" y="195" width="180" height="10" fill="#2a2a3e"/>
  <rect x="10" y="205" width="180" height="10" fill="#2a2a3e"/>
  <rect x="20" y="215" width="160" height="10" fill="#2a2a3e"/>
  <rect x="30" y="225" width="140" height="10" fill="#2a2a3e"/>

  <!-- Borde oscuro -->
  <rect x="20" y="10" width="10" height="5" fill="#1a1a2e"/>
  <rect x="170" y="10" width="10" height="5" fill="#1a1a2e"/>
  <rect x="10" y="20" width="10" height="5" fill="#1a1a2e"/>
  <rect x="180" y="20" width="10" height="5" fill="#1a1a2e"/>

  <!-- Luz azul grande (pantalla superior izquierda) -->
  <rect x="20" y="20" width="10" height="10" fill="#90e0ef"/>
  <rect x="30" y="15" width="30" height="5" fill="#90e0ef"/>
  <rect x="25" y="20" width="35" height="30" fill="#90e0ef"/>
  <rect x="30" y="50" width="25" height="5" fill="#90e0ef"/>
  <!-- Brillo interior -->
  <rect x="28" y="22" width="10" height="8" fill="#caf0f8"/>

  <!-- Luces pequeñas -->
  <rect x="75" y="25" width="10" height="10" fill="#e63946"/>
  <rect x="73" y="27" width="14" height="6" fill="#e63946"/>
  <rect x="76" y="24" width="8" height="12" fill="#ff6b6b"/>
  <!-- Brillo -->
  <rect x="77" y="26" width="3" height="3" fill="#ffb3b3"/>

  <rect x="95" y="25" width="10" height="10" fill="#ffd166"/>
  <rect x="93" y="27" width="14" height="6" fill="#ffd166"/>
  <rect x="96" y="24" width="8" height="12" fill="#ffd166"/>
  <rect x="97" y="26" width="3" height="3" fill="#fff3b0"/>

  <!-- Pantalla principal (superior) -->
  <rect x="55" y="65" width="100" height="70" fill="#1a1a2e"/>
  <rect x="57" y="67" width="96" height="66" fill="#0d1b2a"/>
  <!-- Grid de pixeles en pantalla -->
  <rect x="60" y="70" width="90" height="60" fill="#0a2540"/>
  <!-- Líneas de scanline -->
  <rect x="60" y="70" width="90" height="2" fill="#0d2d4a" opacity="0.5"/>
  <rect x="60" y="76" width="90" height="2" fill="#0d2d4a" opacity="0.5"/>
  <rect x="60" y="82" width="90" height="2" fill="#0d2d4a" opacity="0.5"/>
  <rect x="60" y="88" width="90" height="2" fill="#0d2d4a" opacity="0.5"/>
  <rect x="60" y="94" width="90" height="2" fill="#0d2d4a" opacity="0.5"/>
  <rect x="60" y="100" width="90" height="2" fill="#0d2d4a" opacity="0.5"/>
  <rect x="60" y="106" width="90" height="2" fill="#0d2d4a" opacity="0.5"/>
  <rect x="60" y="112" width="90" height="2" fill="#0d2d4a" opacity="0.5"/>
  <rect x="60" y="118" width="90" height="2" fill="#0d2d4a" opacity="0.5"/>
  <rect x="60" y="124" width="90" height="2" fill="#0d2d4a" opacity="0.5"/>

  <!-- Silueta pixel Pokémon en pantalla (tipo gengar simplificado) -->
  <rect x="85" y="78" width="10" height="4" fill="#e63946" opacity="0.9"/>
  <rect x="80" y="82" width="20" height="4" fill="#e63946" opacity="0.9"/>
  <rect x="78" y="86" width="24" height="4" fill="#e63946" opacity="0.9"/>
  <rect x="76" y="90" width="28" height="4" fill="#e63946" opacity="0.9"/>
  <rect x="76" y="94" width="28" height="4" fill="#e63946" opacity="0.9"/>
  <rect x="78" y="98" width="24" height="4" fill="#e63946" opacity="0.9"/>
  <rect x="80" y="102" width="8" height="4" fill="#e63946" opacity="0.9"/>
  <rect x="92" y="102" width="8" height="4" fill="#e63946" opacity="0.9"/>
  <!-- Ojos -->
  <rect x="82" y="90" width="4" height="4" fill="#fff"/>
  <rect x="94" y="90" width="4" height="4" fill="#fff"/>
  <rect x="83" y="91" width="2" height="2" fill="#1a1a2e"/>
  <rect x="95" y="91" width="2" height="2" fill="#1a1a2e"/>

  <!-- Panel inferior izquierdo: D-pad -->
  <rect x="25" y="140" width="10" height="30" fill="#1a1a2e"/>
  <rect x="20" y="150" width="30" height="10" fill="#1a1a2e"/>
  <!-- Centro dpad -->
  <rect x="27" y="152" width="6" height="6" fill="#3a3a5e"/>
  <!-- Flechas -->
  <rect x="28" y="142" width="4" height="6" fill="#4a4a6e"/>
  <rect x="28" y="162" width="4" height="6" fill="#4a4a6e"/>
  <rect x="22" y="152" width="6" height="4" fill="#4a4a6e"/>
  <rect x="42" y="152" width="6" height="4" fill="#4a4a6e"/>

  <!-- Panel inferior derecho: botones A/B -->
  <rect x="148" y="148" width="12" height="12" fill="#e63946"/>
  <rect x="146" y="150" width="16" height="8" fill="#e63946"/>
  <rect x="148" y="146" width="12" height="16" fill="#e63946"/>
  <rect x="150" y="150" width="8" height="8" fill="#c1121f"/>

  <rect x="128" y="158" width="12" height="12" fill="#c1121f"/>
  <rect x="126" y="160" width="16" height="8" fill="#c1121f"/>
  <rect x="128" y="156" width="12" height="16" fill="#c1121f"/>
  <rect x="130" y="160" width="8" height="8" fill="#a00f1a"/>

  <!-- Letras A B -->
  <rect x="152" y="151" width="2" height="6" fill="#ff9999"/>
  <rect x="154" y="151" width="2" height="2" fill="#ff9999"/>
  <rect x="154" y="154" width="2" height="2" fill="#ff9999"/>
  <rect x="156" y="151" width="2" height="6" fill="#ff9999"/>

  <rect x="132" y="161" width="2" height="6" fill="#ff9999"/>
  <rect x="134" y="161" width="2" height="2" fill="#ff9999"/>
  <rect x="134" y="164" width="2" height="2" fill="#ff9999"/>
  <rect x="136" y="163" width="2" height="4" fill="#ff9999"/>

  <!-- Botón Start/Select -->
  <rect x="78" y="195" width="18" height="6" fill="#1a1a2e" rx="2"/>
  <rect x="104" y="195" width="18" height="6" fill="#1a1a2e" rx="2"/>
  <text x="79" y="201" font-family="monospace" font-size="4" fill="#6a6a8e">SELECT</text>
  <text x="107" y="201" font-family="monospace" font-size="4" fill="#6a6a8e">START</text>

  <!-- Altavoz (líneas) -->
  <rect x="148" y="178" width="25" height="3" fill="#1a1a2e"/>
  <rect x="148" y="184" width="25" height="3" fill="#1a1a2e"/>
  <rect x="148" y="190" width="25" height="3" fill="#1a1a2e"/>
  <rect x="152" y="175" width="17" height="3" fill="#1a1a2e"/>
  <rect x="152" y="196" width="17" height="3" fill="#1a1a2e"/>

  <!-- Highlight borde superior izquierdo -->
  <rect x="10" y="20" width="3" height="100" fill="#ff6b6b" opacity="0.3"/>
  <rect x="20" y="10" width="150" height="3" fill="#ff6b6b" opacity="0.3"/>

  <!-- Highlight borde inferior derecho -->
  <rect x="187" y="125" width="3" height="85" fill="#000" opacity="0.3"/>
  <rect x="30" y="232" width="140" height="3" fill="#000" opacity="0.3"/>

</svg>
